<svg id="Layer_1" data-name="Layer 1" xmlns="http://www.w3.org/2000/svg" viewBox="0 0 500 500"><defs><style>.cls-1{fill:#6c4b60;}</style></defs><path class="cls-1" d="M128,247.16a63.77,63.77,0,0,0-6.42,1,61.2,61.2,0,0,0-6.31,1.25,57.21,57.21,0,0,0-5.78,2.13c-2,.77-4,1.49-5.84,2.44a77.71,77.71,0,0,0-9.88,6.37,43,43,0,0,0-4.53,3.78A99.55,99.55,0,0,0,77.89,277a90.39,90.39,0,0,0-7.07,11.25C66,297.43,61.89,307,59.93,317.22a116.65,116.65,0,0,0-2,17.68,34.47,34.47,0,0,0,.2,6.26c.53,3.62,1.37,7.59,3.4,10.73a36.84,36.84,0,0,0,4.71,6.46,53.38,53.38,0,0,0,6.7,5.48,53.57,53.57,0,0,0,10.78,5.34,70.18,70.18,0,0,0,12.31,3.16,37.58,37.58,0,0,0,6.08.67,92.68,92.68,0,0,0,13.12-.06c2.18-.23,4.33-.66,6.49-1s4.46-.73,6.65-1.26a48.46,48.46,0,0,0,5.86-1.83,96.49,96.49,0,0,0,11.75-5,110.68,110.68,0,0,0,10.31-6.68,55.76,55.76,0,0,0,4.85-3.82,110.56,110.56,0,0,0,12.23-13,109.66,109.66,0,0,0,16.1-26.65,48.43,48.43,0,0,0,3.58-12.42c.72-5.31,1.35-10.65.44-16A68.29,68.29,0,0,0,190.91,275a32.45,32.45,0,0,0-2.1-4.93,67,67,0,0,0-6-9.05,31.82,31.82,0,0,0-3.77-4.1,70.28,70.28,0,0,0-8.89-7.06,22.83,22.83,0,0,0-9.14-3.51,26.79,26.79,0,0,0-10.7-1,26.72,26.72,0,0,0-10.43,2.54,22.78,22.78,0,0,0-8.51,4.83c-4,3.79-7.77,9-7,14.89l1.38,5.29a20,20,0,0,0,7.72,8.38,35.5,35.5,0,0,1,3.14,2.29l-4.59-3.76a32.63,32.63,0,0,1,6,6.59L135,281.82a33.15,33.15,0,0,1,4.52,10.08l-1.38-5.29a34.83,34.83,0,0,1,.87,12l.58-5.44A50,50,0,0,1,134.83,309l2.4-5A96.65,96.65,0,0,1,122,326.35l4-4.41a64.41,64.41,0,0,1-11.65,10.22l5.32-3.57a49.85,49.85,0,0,1-9.14,4.82l6.4-2.53a48.38,48.38,0,0,1-9.08,2.54l7.24-1.27a45.49,45.49,0,0,1-8.24.64l7.35.18a39.61,39.61,0,0,1-7.68-.93l6.7,1.54a32.56,32.56,0,0,1-6.08-2.08l5.79,2.74a22.57,22.57,0,0,1-4.43-2.71l4.6,3.77a14.56,14.56,0,0,1-2.59-2.73l3.12,4.61a13,13,0,0,1-1.7-3.8l1.39,5.3c-1-4.28-.59-9-.15-13.31l-.57,5.45a84.51,84.51,0,0,1,7.84-27.48l-2.41,5a87,87,0,0,1,13.2-20.07l-4,4.41a46.8,46.8,0,0,1,8.51-7.51l-5.32,3.57a34.21,34.21,0,0,1,6.11-3.21l-6.4,2.53a28.69,28.69,0,0,1,5.27-1.48l-7.23,1.27c.93-.16,1.86-.27,2.81-.34A26.53,26.53,0,0,0,141.45,285a22.74,22.74,0,0,0,8.51-4.84,15.16,15.16,0,0,0,5.18-6.92,12.22,12.22,0,0,0,1.78-8L155.54,260a20,20,0,0,0-7.72-8.39A34.4,34.4,0,0,0,128,247.16Z"/><path class="cls-1" d="M430.33,299.91c-9.13-16.76-19.38-33.47-33.16-46.82-1.21-1.17-2.6-2.2-3.89-3.25a67.45,67.45,0,0,0-9.3-6.5c-3.06-1.77-7.84-4-11.54-4.17-2.48-.12-4.92-.23-7.38-.59s-4.72-.78-7.08-1.17a51.15,51.15,0,0,0-17.1-.39,22,22,0,0,0-6.68,2.35,34,34,0,0,0-7.74,5.28c-3.65,3.56-6,8.31-7.71,13a40.36,40.36,0,0,0-2.36,12.15,59.73,59.73,0,0,0,1.31,16.33,69.87,69.87,0,0,0,9,21.1,87.74,87.74,0,0,0,7.61,10.48c.71.89,1.46,1.74,2.25,2.57,2.34,2.47,4.68,5,7.2,7.27A91.23,91.23,0,0,0,354,335.79a96.88,96.88,0,0,0,10.78,6.57,95.44,95.44,0,0,0,10.92,4.77,87.4,87.4,0,0,0,10.65,2.81,58.11,58.11,0,0,0,16.5.7,36.08,36.08,0,0,0,12.3-3.07,40.84,40.84,0,0,0,12.15-8.17,34.75,34.75,0,0,0,7.24-11.89c1.75-4.48,1.75-9.18,1.17-13.92a38.59,38.59,0,0,0-2.89-9.45,33.38,33.38,0,0,0-4.94-7.72,57.56,57.56,0,0,0-15.65-14.29,34,34,0,0,0-8.14-4.21l-4.74-1.18a7.49,7.49,0,0,0-6.68,1.74l-1.33,2.92a15.48,15.48,0,0,0,1.82,8.5c.12.3.23.6.34.9l-1.61-4.61a19.8,19.8,0,0,1,1.05,5.17l-.21-3.89a21.72,21.72,0,0,1-2,10l1.33-2.92a29.67,29.67,0,0,1-12.25,13.08l2.79-1.59a36.34,36.34,0,0,1-16.37,4.47l3.9-.16A47.06,47.06,0,0,1,357.19,309l4.75,1.18a49.25,49.25,0,0,1-8.28-2.9l5.32,2.43a49.42,49.42,0,0,1-5.59-3L359,310.2q-2-1.29-3.86-2.78l5.68,4.62a40.75,40.75,0,0,1-3.29-3l5.12,5.24a45.52,45.52,0,0,1-3.16-3.64l4.08,5.28a42.23,42.23,0,0,1-3-4.57l2.9,5.07a43.84,43.84,0,0,1-3.19-7l1.61,4.62a45.28,45.28,0,0,1-2.38-12.29l.2,3.89a41.46,41.46,0,0,1,3.18-18.71l-1.33,2.92a25.41,25.41,0,0,1,10.12-11.57l-2.78,1.59a22.83,22.83,0,0,1,10.23-2.91l-3.89.15a63.25,63.25,0,0,1,12.93,1.38c2.25.39,4.5.76,6.76,1,1.16.12,2.33.21,3.49.25a8.72,8.72,0,0,1,1.77.08l-4.74-1.18a3,3,0,0,1,.39.14l-5.32-2.43a5.71,5.71,0,0,1,.64.35l-5.63-3.57a9.83,9.83,0,0,1,.83.61l-5.68-4.62a18.81,18.81,0,0,1,1.47,1.35L377,265.22a53.39,53.39,0,0,1,3.9,4.59l-4.07-5.28a203,203,0,0,1,15,23.06l-2.9-5.08c.6,1.05,1.19,2.1,1.77,3.17a33.2,33.2,0,0,0,4.94,7.71,57.56,57.56,0,0,0,15.65,14.29,33.61,33.61,0,0,0,8.14,4.21l4.74,1.18a7.47,7.47,0,0,0,6.67-1.74l1.33-2.92a15.47,15.47,0,0,0-1.81-8.5Z"/><path class="cls-1" d="M49.47,247.67l-.48,0,5.31-.21a53.17,53.17,0,0,1-14.61-1.31l6.47,1.62a38.06,38.06,0,0,1-6.06-2.09L47.36,249a33.4,33.4,0,0,1-4.08-2.2L51,251.68a33.49,33.49,0,0,1-2.83-2.06l7.74,6.31c-.8-.67-1.57-1.36-2.3-2.1l7,7.13a32.37,32.37,0,0,1-2.43-2.79l5.55,7.21a35.36,35.36,0,0,1-2.56-3.86l4,6.93a41.07,41.07,0,0,1-3-6.59l2.2,6.29a58.93,58.93,0,0,1-2.93-16l.27,5.31c-.67-13.21,1.68-26.66,5.88-39.16,1-3,2.11-5.87,3.39-8.71l-1.81,4c2.14-4.7,4.46-9.09,9-11.74L74.33,204c12.29-6.67,27-2.34,39.78-7.43,6.62-2.64,13-6.65,16.1-13.23,2.09-4.4,3.62-8.34,3.55-13.23a59.94,59.94,0,0,0-1.95-15.22c-2.2-8-5.62-15.66-6.11-24l.28,5.31a36.56,36.56,0,0,1,3.39-16.57l-1.81,4a43.17,43.17,0,0,1,17.42-19l-3.79,2.17c4.36-2.45,8.76-4.55,13.82-4.79l-5.31.21c2.2-.07,4.4,0,6.61,0,4.52-.07,9-.45,13.51-.67l-5.31.21a48.84,48.84,0,0,1,13.24,1.48l-6.47-1.61a79.77,79.77,0,0,1,13.16,4.66L177.18,103a119.18,119.18,0,0,1,14.29,7.82l-7.68-4.88a160.15,160.15,0,0,1,14.84,10.76l-7.74-6.31a163.43,163.43,0,0,1,13,11.81l-7-7.13a102.24,102.24,0,0,1,7.81,8.83l-5.55-7.2a43.84,43.84,0,0,1,3.15,4.59l-4-6.92a15.42,15.42,0,0,1,1.2,2.49l-2.2-6.29c.05.15.1.3.14.45l52.32,18.77q-2.72-4.45-5.32-9l3.95,6.93c-10.95-19.24-20.08-39.42-28.39-59.92-2.78-6.86-5.43-13.78-8.33-20.59A86.55,86.55,0,0,0,190.4,16.81a83.5,83.5,0,0,0-15.83-11.5C170.75,3.25,165,.64,160.48.23c-3-.28-7.64-.23-9.83,2.61a17.36,17.36,0,0,0-3.08,7.94l.28,5.3A29.19,29.19,0,0,0,152,25.84a70.94,70.94,0,0,0,14.52,17.79A92.39,92.39,0,0,0,182,54.81a30.85,30.85,0,0,0,10.49,4.12,15.26,15.26,0,0,0,8.55.59c1.6-.11,3.19-.2,4.8-.27l-5.31.22a137.57,137.57,0,0,1,38.23,4l-6.47-1.62c24.52,6.15,46.93,18.47,71.4,24.74a185.86,185.86,0,0,0,26,5.22,166.05,166.05,0,0,0,26.48.41c11.24-.55,21.86-4.47,32.44-8,12.64-4.26,25.86-9.44,39.33-10.08l-5.31.21a28.48,28.48,0,0,1,7.65.62l-6.47-1.61a49.86,49.86,0,0,1,8.1,3L424.59,73a86.75,86.75,0,0,1,9.91,5.46l-7.68-4.88a110.23,110.23,0,0,1,9.9,7.17L429,74.46A107.13,107.13,0,0,1,437.25,82l-7-7.13a88.12,88.12,0,0,1,6.39,7.27l-5.55-7.2a67,67,0,0,1,4.81,7.1l-4-6.92a44.87,44.87,0,0,1,3.33,7.17L433.08,76a23.5,23.5,0,0,1,1.24,6.15l-.27-5.31c.39,8.1-2.47,16.08-5.41,23.51-3.14,7.94-6.93,15.66-9.49,23.82-3.3,10.47-3.06,21.47-2.34,32.29.66,9.94,2.7,19.72,4.78,29.44,2.37,11.09,4.8,22.2,5.44,33.55l-.27-5.3a89.5,89.5,0,0,1-.25,13.2c-.35,3.48-.73,7-2.18,10.25l1.81-4c-2.68,5.62-7.67,9.69-13,12.75L417,244.2a56.66,56.66,0,0,1-25,7.54l5.32-.21a21.7,21.7,0,0,1-5.69-.42l6.47,1.61a10.84,10.84,0,0,1-1.46-.48l7.26,3.31a7.24,7.24,0,0,1-.68-.35l7.68,4.87c-.15-.1-.3-.19-.44-.3l7.74,6.3a2.82,2.82,0,0,1-.36-.33l7,7.13a2.31,2.31,0,0,1-.2-.24l5.55,7.2a2.2,2.2,0,0,1-.17-.25,59.15,59.15,0,0,0-9.05-10.77,66.38,66.38,0,0,0-11.23-9.87,47.48,47.48,0,0,0-11.31-6.53,29.24,29.24,0,0,0-10.09-3.27c-4.63-.19-10.17.56-10.92,6.35l.28,5.31A40.12,40.12,0,0,0,383.74,274a79.53,79.53,0,0,0,13,14.94A85.21,85.21,0,0,0,413,300.71a50.68,50.68,0,0,0,16.13,5.79c4.48.85,9.29.41,13.78-.12,9.43-1.13,18-4.88,26.08-9.67s14.33-12.21,15.94-21.86c2.42-14.5.64-29.68-2.13-44-2.8-14.54-6.71-28.93-7.55-43.78l.27,5.31c-.46-9.17.24-18.41,3.2-27.14,2.72-8.07,6.48-15.76,9.54-23.7a86.55,86.55,0,0,0,3.88-12.24,50.12,50.12,0,0,0,.67-15.66c-.5-5.63-2.75-11.2-5.21-16.25A100.89,100.89,0,0,0,477.63,81,202.21,202.21,0,0,0,457,57.57a187.36,187.36,0,0,0-17.14-14.45A149.31,149.31,0,0,0,404.72,23a54.68,54.68,0,0,0-14.93-3.92,63.81,63.81,0,0,0-13.67.47c-7.34.9-14.52,3-21.56,5.18-15.61,4.89-31.09,12-47.62,12.66l5.31-.21a137.86,137.86,0,0,1-38.23-4l6.46,1.61c-14.71-3.69-28.69-9.56-42.77-15.09C221.62,13.39,205,8,187.87,5.45a160.3,160.3,0,0,0-34.69-.82L206.6,53.38a12.74,12.74,0,0,1,.81-3.27l-1.82,4a2,2,0,0,1,.64-.84l-3.79,2.16a1,1,0,0,1,.33-.1l-5.31.21.22,0-6.47-1.61.22.07-7.25-3.31.15.09-7.68-4.88c.08.06.16.11.24.18l-7.74-6.31.24.23-7-7.13c.15.16.29.33.43.51l-5.55-7.21a17.79,17.79,0,0,1,1.06,1.65l-4-6.92a91.1,91.1,0,0,1,4.55,10c2.17,5.29,4.26,10.62,6.4,15.93,5.92,14.66,12.2,29.18,19.3,43.31,5.84,11.62,12.23,23,19,34.08l5.55,7.2a66.52,66.52,0,0,0,10.86,10.29c5.49,4.48,11.95,9.23,18.8,11.34,3.67,1.13,7.91,2.26,11.78,1.4,5-1.13,6.58-7.09,5.33-11.45-3.3-11.53-10.42-21.13-18-30.2a197.06,197.06,0,0,0-21.4-21.65A231.2,231.2,0,0,0,189.4,70.22c-11.55-7.4-23.26-14.29-36.29-18.83a92.25,92.25,0,0,0-18.58-4.58c-6.07-.78-12.15,0-18.24.25l5.32-.21c-6.34.25-13.06-.66-19.22,1A39.19,39.19,0,0,0,94,51.59a60.13,60.13,0,0,0-11.84,7.92c-6.23,5.68-10.48,13.13-13.25,21.05a35.1,35.1,0,0,0-2,10.83,60.11,60.11,0,0,0,1.63,15.81c2.08,8.33,5.93,16.33,6.43,25l-.27-5.31A23.07,23.07,0,0,1,73,136.79l1.81-4A21,21,0,0,1,66,142.23l3.79-2.17c-8.89,4.88-18.78,4.25-28.55,5.14a51.08,51.08,0,0,0-7.27,1.12,39.71,39.71,0,0,0-11.22,5,14.64,14.64,0,0,0-4.18,3.34c-2.94,3.61-4.79,8.18-6.66,12.38a101.67,101.67,0,0,0-4.75,13,108,108,0,0,0-4.62,32.44c.16,7.06.54,14.24,2.48,21.07A80.08,80.08,0,0,0,17.5,259.81a109.24,109.24,0,0,0,8,10A136.09,136.09,0,0,0,43,285.74a95.67,95.67,0,0,0,22,12.32,68.67,68.67,0,0,0,15.68,4.19c5.53.86,11,.56,16.62.31a5.41,5.41,0,0,0,4.69-4.15,8,8,0,0,0,.64-7.3,29.16,29.16,0,0,0-4.18-9.75,47.69,47.69,0,0,0-7.53-10.67c-6.4-7.1-13.84-13.95-22.41-18.31l-7.26-3.31a21.13,21.13,0,0,0-11.77-1.4Z"/><path class="cls-1" d="M59.93,436.16c2.36-.51,4.73-1,7.1-1.43l-13.71,2.61c7.76-1.48,15.56-2.74,23.38-3.89,9.26-1.37,18.54-2.58,27.83-3.69q15.56-1.86,31.14-3.36,16.65-1.62,33.32-2.93,17.17-1.35,34.36-2.39l4.29-.26-11.16.65q17.63-1,35.27-1.69,16.88-.63,33.77-.86c10.36-.13,20.73-.13,31.1.09,9,.18,18,.52,27,1.16,7.27.51,14.53,1.2,21.73,2.35l2.25.38-7.95-1.4c5.47,1,11.29,2.09,16.23,4.75A14.12,14.12,0,0,1,358.4,428l-4.08-3.55a5.38,5.38,0,0,1,2.14,4.29l.36-5.4a6.58,6.58,0,0,1-1.28,3.25l4.61-6.63a16.49,16.49,0,0,1-2.49,2.72l8.33-7.46a36,36,0,0,1-3.47,2.68L374,410c-1.6,1.09-3.27,2.09-5,3l14.18-7.88c-2.71,1.51-5.5,2.88-8.32,4.17l16.32-7.49c-5.54,2.54-11.2,4.81-16.91,6.94l16.82-6.28c-12.36,4.61-24.94,8.65-37.56,12.46q-6.62,2-13.26,3.9l15.6-4.49c-21.18,6.1-42.52,11.67-63.9,17q-10.87,2.71-21.77,5.33a163,163,0,0,0-24,7.64A185.54,185.54,0,0,0,221.55,455a125.44,125.44,0,0,0-20,11.82,69.81,69.81,0,0,0-14.09,11.39l-4.61,6.63q-2.6,6.33,3.72,8.95l7.95,1.4a96.32,96.32,0,0,0,24.87-3.26c18.72-4.51,37.39-9.18,56-14.13q29.73-7.92,59.2-16.81c11.09-3.36,22.13-6.89,33-10.84,9.79-3.55,19.59-7.11,29.24-11.05,8.92-3.64,17.68-7.77,26.38-11.89,7.52-3.57,14.8-7.78,22-11.94q1.59-.92,3.12-1.92c4.73-3.12,9.55-6.2,14-9.66,3.65-2.82,7-6,10.35-9.17a15.7,15.7,0,0,0,1.58-1.68,53,53,0,0,0,5.67-8.2,6.32,6.32,0,0,0,.59-1.51,22.85,22.85,0,0,0,.49-6.8,4.3,4.3,0,0,0-.33-1.36,5.11,5.11,0,0,0-.78-1.28,32.49,32.49,0,0,0-5.25-4.72,25.69,25.69,0,0,0-8.9-4.13c-2.2-.65-4.43-1.18-6.68-1.63q-7.89-1.61-15.87-2.76c-6.52-.94-13.09-1.55-19.66-2-7.95-.55-15.91-.87-23.87-1.07-9-.22-18-.27-27-.21q-14.76.11-29.51.56-15.45.46-30.89,1.24-21.24,1.05-42.46,2.47-15.69,1-31.38,2.35-15.09,1.26-30.15,2.78-14.15,1.43-28.27,3.13c-8.44,1-16.88,2.14-25.29,3.38-7.21,1.07-14.41,2.23-21.57,3.57-7.49,1.39-15,2.76-22.45,4.35a163,163,0,0,0-24,7.64A185.48,185.48,0,0,0,62,399.22a126.25,126.25,0,0,0-19.95,11.83A69.47,69.47,0,0,0,28,422.44l-4.61,6.63Q20.8,435.4,27.11,438l8,1.41a96.32,96.32,0,0,0,24.87-3.26Z"/></svg>