<svg id="Layer_1" data-name="Layer 1" xmlns="http://www.w3.org/2000/svg" viewBox="0 0 582.33 340.86"><defs><style>.cls-1{fill:#231f20;}</style></defs><path class="cls-1" d="M-108.47,16.62c3.21,0,3.22-5,0-5s-3.23,5,0,5Z" transform="translate(110.89 -11.62)"/><path class="cls-1" d="M90,306.41c2.51-4.79-.52-10-5-12.26-5.26-2.72-11.19-1.06-15.61,2.51s-7.64,9-10.12,14.26a65,65,0,0,0-5.6,18.22,66.81,66.81,0,0,0-.75,9.48c0,3.17.34,6.37,2.46,8.89,3.81,4.51,10.67,5.6,16.2,4.66C84.23,350,92.05,338.59,97.11,327.8c2.91-6.21,4.83-13.18,4-20.07a23.44,23.44,0,0,0-8.78-16c-1.9-1.44-5.8,1-3.33,2.86,8.14,6.21,8.5,17.85,5.58,26.78a60.16,60.16,0,0,1-7.28,14.51c-2.8,4.22-6.25,8.25-10.77,10.68-4,2.14-8.83,3-13.14,1.32a7.92,7.92,0,0,1-4.86-4.59c-.87-2.51-.59-5.55-.45-8.17A61,61,0,0,1,68.2,304.57c2.43-3.57,6.44-8.32,11.19-8.16,3.69.13,8.18,4.68,6.2,8.47-1.34,2.55,3.37,3.59,4.44,1.53Z" transform="translate(110.89 -11.62)"/><path class="cls-1" d="M54.68,317.6a12.81,12.81,0,0,1-12.8.3c-4.62-2.32-7.11-6.73-8.47-11.57-1.51-5.33-1.73-10.92-1.85-16.43a133.63,133.63,0,0,1,.26-14c.72-8.87,2.9-18.31,9.69-24.56,7.8-7.18,19-7.38,29-8.53,8.55-1,18.54-3.4,24-10.73,5.83-7.9,2.85-17.44-.64-25.61-2-4.65-4.25-9.25-5.41-14.2a27.72,27.72,0,0,1,.53-14.43c2.89-9.62,10.28-17.7,19-22.39,11.11-5.92,24-7.32,36.45-7.14,8.64.13,21.46,1,25.19,10.33.24.6,3.62,3.72,3.77,2.07l.87-9.38.4-4.27c.06-.7-.07-1.47.44-2s2.06-.5,2.89-.61l18.23-2.31,37.32-4.72,75.08-9.51c24.72-3.13,49.43-6.73,74.21-9.27,21.6-2.22,45.25-2.26,64,10.24,8,5.3,14.36,12.61,17.65,21.67,3.9,10.75,3.38,22.54,2.06,33.72-1.42,12-3.42,24-5.18,35.95l-5.45,37-2.67,18.1-1.33,9.05-.7,4.74c-.08.56-.12,1.17-.25,1.72-.35,1.54-.8,1.74-2.19,2.39-5.35,2.5-10.68,5.06-16.07,7.5-2.44,1.11-5.34,2.39-8.07,1.69-2.44-.63-3.67-3.21-4.72-5.29-4.54-9.05-8.65-18.44-16.68-25-6.62-5.4-16.73-8.79-24.78-4.52-8.51,4.52-10.72,15.47-10.4,24.3.34,9.6,3.89,19,10.78,25.85,6.37,6.31,15.6,10.25,24.63,9.05a21.9,21.9,0,0,0,17.91-15.46,19,19,0,0,0-.19-11.67,4.8,4.8,0,0,0-2.28-2.58c-.45-.23-2-.67-1.62.45,2.8,8.1-1,17-7.69,22-7.53,5.56-18.35,4.68-25.88-.41C375.48,313.59,372,303,372,293.4c0-8.89,2.69-20.1,12.23-23.17s18.64,2.76,23.92,10.38a96.75,96.75,0,0,1,7.34,13.5c1.88,3.94,4,7.89,7.75,10.39,4.39,2.95,8.91,1.68,13.38-.38,5.39-2.49,10.77-5,16.15-7.54,1.43-.66,1.76-.51,2-2s.42-2.88.63-4.31l1.4-9.48,2.66-18.09c3.48-23.63,7.18-47.25,10.42-70.91,1.45-10.61,2.47-21.54.4-32.14A49.18,49.18,0,0,0,457.35,135c-13.68-14.24-33.14-20.37-52.47-21.11-11.41-.43-22.82.72-34.13,2.11-12.1,1.47-24.18,3-36.27,4.58L189.09,139l-17.79,2.25a.48.48,0,0,0-.37.41l-1.5,16.21,3.77,2.06c-3.6-9-13.13-13.22-22.15-14.62a84.06,84.06,0,0,0-15.86-.62,86.58,86.58,0,0,0-17.33,2.22c-10.91,2.65-21.1,8.26-27.69,17.56-6.25,8.82-8,19.27-4.58,29.53,3.22,9.48,10.83,19.85,7.44,30.26-3.25,10-15,13.53-24.36,14.72-10.6,1.36-22.49,1.29-30.85,9-7.23,6.66-9.41,16.94-10,26.36a153,153,0,0,0,0,17.92c.33,6.32,1.22,12.76,4.27,18.41,4.69,8.68,16.79,16.52,26.3,10.32,1-.65-2.3-4.28-3.69-3.37Z" transform="translate(110.89 -11.62)"/><path class="cls-1" d="M360.06,301.66l6.95-7.38-4.36-2.14c-8.42,9.91-23.32,7.17-34.79,7-8-.09-15.69,1.55-23.54,2.94a122.29,122.29,0,0,1-23.94,1.62c-16.07-.35-32-2.77-48.1-3.05a117.73,117.73,0,0,0-23.41,1.71,112.29,112.29,0,0,0-11.54,3c-1.09.33-3.35,1.05-4.2.64-1.32-.63-2.19-2.93-2.77-4.15a54,54,0,0,1-1-42.81,51,51,0,0,1,2.28-4.85c.61-1.15-4-3.08-4.7-1.69a55,55,0,0,0-3.06,44c1.2,3.29,2.61,7.31,5.38,9.61,3.39,2.81,7.75,2.82,11.77,1.63a108.43,108.43,0,0,1,11.76-3,95.68,95.68,0,0,1,12.29-1.38c16.61-.88,33.13,1.61,49.68,2.54a158.34,158.34,0,0,0,24.83-.22c8.74-.87,17.27-3.44,26.06-3.91,6.72-.35,13.45.38,20.18.23,6.1-.13,12.62-1,17.73-4.59a19.16,19.16,0,0,0,3.43-3.18c1-1.23-3.41-3.15-4.36-2.14l-6.95,7.38c-1.08,1.15,3.38,3.18,4.36,2.14Z" transform="translate(110.89 -11.62)"/><path class="cls-1" d="M112,314.49a19.42,19.42,0,0,0-3.7-8.22l-4,1.53c19.44,4.35,36.33-9.55,53.72-15.55a92.53,92.53,0,0,1,16.24-4c.56-.09,2.47-.43,2.34-1.31s-2.13-.66-2.61-.59a105.28,105.28,0,0,0-28,8.33c-8.11,3.71-16,8.34-24.66,10.68a28.42,28.42,0,0,1-13.74.56c-.59-.13-5,.21-4,1.52a18.12,18.12,0,0,1,3.44,7.74c.26,1.37,5.19.59,5-.72Z" transform="translate(110.89 -11.62)"/><path class="cls-1" d="M158,176.25c-7.17-4.84-17-4.76-24.6-1a23.9,23.9,0,0,0-9.91,8.67,17.54,17.54,0,0,0-2.68,7.52,23.42,23.42,0,0,0,1.21,8.33c2.61,9.32,8.68,18.43,19.07,19.5a16.44,16.44,0,0,0,12.93-4.1,15,15,0,0,0,4.32-11c0-4.66-1.33-9.2-2.15-13.75-.76-4.25-1.35-9.08.87-13,1.52-2.69-3.08-3-4.21-1-3.93,7-1.42,14.79-.07,22.09.62,3.35,1.2,7,.28,10.36a8.69,8.69,0,0,1-6.28,6.41c-8.55,2-15.22-5-18.31-12.18a43.21,43.21,0,0,1-2.16-6.48,15.25,15.25,0,0,1-.37-7.67,16.48,16.48,0,0,1,6.48-9,19.88,19.88,0,0,1,22.23-.41c1.84,1.24,5.69-1.67,3.35-3.26Z" transform="translate(110.89 -11.62)"/><path class="cls-1" d="M175.62,153.28c9.69,21.27,10.2,45.29,11.78,68.21l1.46,21.22c.11,1.51,4.73,2.51,4.85.89,2-27.67-8.38-53.93-13.47-80.69A143.45,143.45,0,0,1,177.59,140l-4.68-.17c8,12.46,10.79,27.25,13.11,41.63,2.58,16,5.22,32.14,5.36,48.39a115.53,115.53,0,0,1-2.84,27.43c-.42,1.77,4.43,3,4.84,1.24,3.76-16.1,3.31-32.79,1.45-49.12-.94-8.25-2.23-16.45-3.53-24.65-1.17-7.38-2.37-14.77-4.24-22a79.41,79.41,0,0,0-9.64-23.11c-.7-1.08-4.73-2.28-4.67-.16.74,27.36,11.54,53,15.21,79.94a110,110,0,0,1,.9,22.94l4.85.89c-.85-12.34-1.66-24.68-2.56-37-.83-11.44-1.89-22.92-4.53-34.11a98.24,98.24,0,0,0-6.16-18.3,3.32,3.32,0,0,0-2.75-1.65c-.49,0-2.57.09-2.09,1.12Z" transform="translate(110.89 -11.62)"/><path class="cls-1" d="M168.39,248.84a20.23,20.23,0,0,0-5-15.66c-.66-.74-2.09-.81-3-.83-.23,0-2.38.15-1.83.76a19.56,19.56,0,0,1,4.85,15.25c-.13,1.06,4.84,1.6,5,.48Z" transform="translate(110.89 -11.62)"/></svg>